<?xml version="1.0" encoding="UTF-8"?>
<svg version="1.1" xmlns="http://www.w3.org/2000/svg" width="512" height="512">
<path d="M0 0 C1.07204418 -0.00297112 2.14408836 -0.00594224 3.24861872 -0.0090034 C6.83556374 -0.01766452 10.42247529 -0.01919648 14.00942993 -0.02069092 C16.58383251 -0.02532104 19.1582344 -0.03034596 21.7326355 -0.03573608 C28.72487324 -0.04928921 35.71710523 -0.05533993 42.70935392 -0.05974674 C47.08236658 -0.06251532 51.45537704 -0.06675388 55.82838821 -0.07125092 C67.95500487 -0.0834416 80.08161977 -0.09374003 92.20824242 -0.09712601 C92.98366938 -0.09734557 93.75909635 -0.09756514 94.55802111 -0.09779136 C95.72383125 -0.09811878 95.72383125 -0.09811878 96.91319311 -0.09845281 C98.48791528 -0.09889626 100.06263745 -0.09934282 101.63735962 -0.09979248 C102.80901639 -0.10012463 102.80901639 -0.10012463 104.00434299 -0.10046348 C116.64096583 -0.10440551 129.27753081 -0.12184224 141.91413133 -0.145152 C154.91296996 -0.16893467 167.91177964 -0.18133106 180.91064036 -0.18249393 C188.19878393 -0.18340702 195.48685215 -0.18906619 202.77497482 -0.20731354 C209.63849117 -0.22443803 216.50186304 -0.22591574 223.36539459 -0.21717453 C225.87385313 -0.21640782 228.38231954 -0.22069814 230.89075851 -0.23063278 C269.12553923 -0.37308497 303.46219342 10.28046881 332.25015259 36.14044189 C332.80428833 36.63802002 333.35842407 37.13559814 333.92935181 37.64825439 C358.2762453 59.90487075 373.38733646 91.55797006 377.25015259 124.14044189 C377.39383971 127.72398111 377.39371666 131.30421551 377.39059448 134.89028931 C377.39505117 136.49835557 377.39505117 136.49835557 377.39959788 138.13890803 C377.408259 141.72585305 377.40979097 145.3127646 377.4112854 148.89971924 C377.41591552 151.47412181 377.42094044 154.04852371 377.42633057 156.6229248 C377.43988369 163.61516255 377.44593441 170.60739454 377.45034122 177.59964323 C377.4531098 181.97265588 377.45734836 186.34566635 377.4618454 190.71867752 C377.47403609 202.84529417 377.48433452 214.97190908 377.48772049 227.09853172 C377.48794006 227.87395869 377.48815962 228.64938566 377.48838584 229.44831041 C377.48860412 230.22551717 377.4888224 231.00272393 377.48904729 231.80348241 C377.48949074 233.37820458 377.48993731 234.95292676 377.49038696 236.52764893 C377.49060839 237.30875344 377.49082982 238.08985795 377.49105796 238.89463229 C377.495 251.53125514 377.51243672 264.16782011 377.53574648 276.80442064 C377.55952915 289.80325926 377.57192554 302.80206895 377.57308841 315.80092967 C377.5740015 323.08907324 377.57966067 330.37714146 377.59790802 337.66526413 C377.61503251 344.52878048 377.61651023 351.39215235 377.60776901 358.2556839 C377.6070023 360.76414243 377.61129262 363.27260884 377.62122726 365.78104782 C377.75349778 401.28302393 368.9534454 434.85409319 345.25015259 462.14044189 C344.56437134 462.94739502 343.87859009 463.75434814 343.17202759 464.58575439 C320.2470297 490.89177715 288.2178945 508.61073824 253.25015259 512.14044189 C249.66664471 512.28481868 246.08637259 512.28400596 242.50030518 512.28088379 C241.428261 512.28385491 240.35621682 512.28682603 239.25168645 512.28988719 C235.66474143 512.29854831 232.07782989 512.30008027 228.49087524 512.30157471 C225.91647267 512.30620483 223.34207078 512.31122975 220.76766968 512.31661987 C213.77543193 512.330173 206.78319994 512.33622372 199.79095125 512.34063053 C195.4179386 512.34339911 191.04492813 512.34763767 186.67191696 512.3521347 C174.54530031 512.36432539 162.4186854 512.37462382 150.29206276 512.3780098 C149.51663579 512.37822936 148.74120882 512.37844893 147.94228407 512.37867515 C146.77647393 512.37900256 146.77647393 512.37900256 145.58711207 512.3793366 C144.0123899 512.37978005 142.43766773 512.38022661 140.86294556 512.38067627 C139.69128879 512.38100841 139.69128879 512.38100841 138.49596219 512.38134727 C125.85933934 512.3852893 113.22277437 512.40272603 100.58617385 512.42603579 C87.58733522 512.44981846 74.58852553 512.46221485 61.58966482 512.46337771 C54.30152125 512.46429081 47.01345302 512.46994998 39.72533035 512.48819733 C32.86181401 512.50532182 25.99844213 512.50679953 19.13491058 512.49805832 C16.62645205 512.49729161 14.11798564 512.50158193 11.60954666 512.51151657 C-30.35159297 512.66785214 -63.99747364 499.64391759 -94.74984741 471.14044189 C-95.34281616 470.61321533 -95.93578491 470.08598877 -96.54672241 469.54278564 C-112.99114459 454.23381167 -124.44456517 431.36140423 -130.49984741 410.07794189 C-130.6986853 409.38265381 -130.89752319 408.68736572 -131.10238647 407.9710083 C-135.15261569 392.91985635 -135.04755658 378.13400822 -135.04037476 362.65582275 C-135.04636622 360.07554939 -135.05317318 357.4952778 -135.06072998 354.91500854 C-135.07725561 348.65691362 -135.0828357 342.3988564 -135.08395474 336.14074146 C-135.08490936 331.0463477 -135.08904018 325.95196624 -135.09535599 320.85757637 C-135.11294635 306.37124429 -135.12219846 291.88494168 -135.12069504 277.39859884 C-135.12061513 276.61964973 -135.12053521 275.84070061 -135.12045288 275.03814697 C-135.12037112 274.25823179 -135.12028936 273.4783166 -135.12020512 272.67476762 C-135.11939313 260.05022807 -135.13851466 247.42580808 -135.16672961 234.80130308 C-135.19556175 221.79660378 -135.20926422 208.79196258 -135.20754206 195.78723055 C-135.20688165 188.50297364 -135.21221919 181.21884204 -135.23389816 173.93461418 C-135.25417965 167.07671299 -135.25333155 160.21907885 -135.2388649 153.36116409 C-135.23678894 150.85879821 -135.24140432 148.35641539 -135.25358582 145.85407829 C-135.44088081 104.67926856 -122.39545316 69.90327096 -93.74984741 40.14044189 C-92.89713257 39.19298096 -92.89713257 39.19298096 -92.02719116 38.22637939 C-69.50146164 13.91472246 -32.56833559 -0.0283553 0 0 Z M238.00015259 79.32794189 C229.36140697 90.15713867 227.03782775 101.69585859 228.25015259 115.14044189 C230.73389306 126.6933833 237.71056833 136.32008492 247.25015259 143.14044189 C258.09127214 149.06045704 269.21843006 151.00288406 281.39468384 148.49200439 C293.10358642 144.57228593 302.26642426 137.07209646 308.00015259 126.20294189 C312.93772892 115.64510183 314.05175338 104.72285083 310.23452759 93.52325439 C304.78799912 80.33919739 296.76369625 72.88962423 283.86343384 67.12091064 C267.57960797 61.01143338 249.60739389 67.03086455 238.00015259 79.32794189 Z M17.90249634 161.14044189 C-8.58727984 190.41179412 -20.15239146 227.06186562 -18.74984741 266.14044189 C-17.75699886 284.05611153 -12.61996133 301.11039141 -4.74984741 317.14044189 C-4.44176147 317.77965576 -4.13367554 318.41886963 -3.81625366 319.07745361 C12.09983711 351.7764347 41.43713728 376.70975025 75.51040649 388.95269775 C83.93008828 391.773025 92.47963523 393.74631458 101.25015259 395.14044189 C102.46251587 395.33766846 102.46251587 395.33766846 103.69937134 395.53887939 C131.38711262 399.11460864 159.57999113 393.90351351 184.25015259 381.14044189 C185.21453247 380.65365967 185.21453247 380.65365967 186.19839478 380.15704346 C218.52788269 363.69752595 242.30008137 334.86587 254.36148071 300.87579346 C266.03537629 264.94328629 263.27352773 225.73144832 246.16860962 192.00811768 C228.62083576 158.79511873 198.95580652 133.7406365 163.25015259 122.14044189 C110.11734163 107.0624549 56.30316477 121.41163004 17.90249634 161.14044189 Z " fill="#FFFFFF" transform="translate(134.74984741210938,-0.14044189453125)"/>
<path d="M0 0 C24.285576 20.21932748 38.63235986 46.41614943 41.8190918 77.91015625 C44.36544527 107.32552164 34.65283761 135.99815999 15.8828125 158.54296875 C-3.7027201 181.02102663 -28.74222161 194.27778038 -58.375 197.75 C-59.91541681 197.8539067 -61.45735419 197.93735448 -63 198 C-63.83402344 198.0515625 -64.66804688 198.103125 -65.52734375 198.15625 C-95.57594588 199.16770365 -123.70912533 187.69773826 -145.5390625 167.3828125 C-165.43489599 148.11859278 -178.99017301 122.09953362 -180 94 C-180.03996094 92.948125 -180.07992187 91.89625 -180.12109375 90.8125 C-180.71470184 59.52586169 -169.59999504 31.5890058 -148 9 C-147.19175781 8.09701172 -147.19175781 8.09701172 -146.3671875 7.17578125 C-109.32620101 -32.7503072 -40.98807919 -33.52990615 0 0 Z " fill="#FFFFFF" transform="translate(325,169)"/>
<path d="M0 0 C3.3170383 2.61128547 5.4091157 5.11277138 7 9 C7.24137178 13.49756077 6.55333627 17.10321363 4.1875 20.9375 C0.23509278 24.66405537 -2.48801702 25.4022635 -8.0390625 25.2578125 C-12.20660842 24.70988814 -15.36858792 22.1576945 -18 19 C-19.76074588 13.71776236 -19.79625804 9.62314139 -17.375 4.6875 C-12.36826474 -0.97801621 -7.11971315 -2.16744035 0 0 Z " fill="#FFFFFF" transform="translate(411,95)"/>
</svg>
