<?xml version="1.0" encoding="UTF-8"?>
<svg version="1.1" xmlns="http://www.w3.org/2000/svg" width="512" height="512">
<path d="M0 0 C1.21735337 -0.00480972 1.21735337 -0.00480972 2.45929974 -0.0097166 C5.18406459 -0.01803084 7.90861045 -0.01208731 10.63337898 -0.00622082 C12.60451182 -0.00924085 14.57564349 -0.01312958 16.54677308 -0.01781338 C21.96774447 -0.02812124 27.38864994 -0.02590447 32.80962682 -0.02163279 C38.65431706 -0.01917062 44.49899122 -0.02817339 50.34367561 -0.03567028 C61.79574378 -0.04843349 73.24778851 -0.05020895 84.69986258 -0.04787002 C94.0064816 -0.04608851 103.31309247 -0.0478329 112.61971092 -0.05209446 C113.95657956 -0.05269686 115.29344819 -0.05329806 116.63031683 -0.05389806 C118.64482931 -0.05480531 120.65934178 -0.05571398 122.67385426 -0.05663041 C141.40511316 -0.06506066 160.13636947 -0.06939515 178.86763 -0.06522369 C179.92694405 -0.06498913 179.92694405 -0.06498913 181.00765837 -0.06474983 C184.58704027 -0.06394404 188.16642217 -0.06309827 191.74580406 -0.06223653 C192.4566856 -0.06206544 193.16756714 -0.06189435 193.89999055 -0.06171808 C195.33756586 -0.06137142 196.77514116 -0.06102289 198.21271647 -0.06067249 C220.5822925 -0.05531507 242.95182911 -0.063246 265.32139778 -0.08170605 C290.45177627 -0.10242009 315.58213035 -0.1131499 340.71251786 -0.10913056 C343.39186867 -0.10873521 346.07121948 -0.10837367 348.7505703 -0.10803318 C350.06891938 -0.10786534 351.38726847 -0.1076975 352.74556752 -0.10752458 C362.04133973 -0.10708643 371.33708992 -0.11398398 380.63285637 -0.1238451 C391.96098491 -0.13574037 403.28905543 -0.13718463 414.61718474 -0.12505493 C420.39836595 -0.11915323 426.17944094 -0.11810249 431.96061516 -0.13005733 C437.25183852 -0.14087199 442.54286642 -0.13786551 447.83408047 -0.12379565 C449.7492393 -0.12113652 451.66441323 -0.12355321 453.57955728 -0.13153151 C456.18201799 -0.14162142 458.78379712 -0.13322945 461.38623047 -0.12025452 C462.1303764 -0.12756386 462.87452232 -0.13487321 463.64121813 -0.14240405 C469.9046671 -0.07764323 475.45535997 1.21268339 480.31505013 5.41072559 C480.95571419 6.18416309 481.59637825 6.95760059 482.25645638 7.75447559 C482.91516731 8.52791309 483.57387825 9.30135059 484.25255013 10.09822559 C488.22849772 15.57135046 487.45431044 22.80813039 486.81895638 29.25447559 C484.90744667 34.44965758 481.49767624 38.31667475 476.81895638 41.25447559 C471.11516062 43.73053017 466.6087298 44.69107733 460.42863846 44.63479233 C459.21378746 44.64178221 459.21378746 44.64178221 457.97439402 44.64891329 C455.26723292 44.66084061 452.5605758 44.65147665 449.85341072 44.64215565 C447.89022513 44.64632955 445.92704196 44.65180738 443.96386325 44.65847546 C438.57404697 44.67294132 433.18438345 44.66868172 427.79455876 44.66130865 C421.97985154 44.65658212 416.16517762 44.66908228 410.35048103 44.67932606 C398.96083893 44.69652955 387.57125195 44.69735083 376.18160023 44.69211315 C366.92462392 44.68807307 357.66766392 44.6895131 348.4106884 44.69486141 C346.4350372 44.69598405 346.4350372 44.69598405 344.41947385 44.69712936 C342.41462934 44.69827456 340.40978483 44.69942444 338.40494033 44.7005886 C319.76727455 44.7112926 301.1296148 44.7160199 282.49194717 44.70811844 C281.43825542 44.70767268 281.43825542 44.70767268 280.36327696 44.70721791 C274.65893107 44.70476902 268.95458525 44.70215741 263.25023944 44.69953378 C241.00114376 44.68943201 218.75212356 44.69778581 196.50303841 44.72102833 C171.50007026 44.74710549 146.49714755 44.75994762 121.4941653 44.75284058 C108.25775202 44.74928604 95.02139808 44.75159733 81.78499413 44.76909161 C70.51697483 44.78379949 59.24906115 44.78446746 47.98104395 44.76702069 C42.23197686 44.75849671 36.48309856 44.75639545 30.73404121 44.77167225 C25.46987692 44.78548739 20.20606373 44.78079679 14.94191991 44.76143301 C13.03889918 44.75766297 11.13585055 44.7606238 9.23285462 44.77104466 C-12.19719629 44.88003939 -12.19719629 44.88003939 -19.0981549 38.47518343 C-24.82661402 32.24795827 -25.69096108 27.1536765 -25.55994987 18.74275684 C-24.86982567 12.38934537 -21.84151914 8.58923154 -17.24354362 4.37947559 C-11.70762477 0.53822578 -6.60138999 -0.03875777 0 0 Z " fill="#FFFFFF" transform="translate(25.18104362487793,162.7455244064331)"/>
<path d="M0 0 C1.22229132 -0.00352835 1.22229132 -0.00352835 2.46927539 -0.00712797 C5.22324508 -0.01383042 7.97716773 -0.01335937 10.73114491 -0.01294994 C12.71618704 -0.01624779 14.7012285 -0.01997319 16.6862691 -0.02409142 C22.15960573 -0.0341285 27.63293139 -0.03783096 33.10627592 -0.04048073 C39.00214155 -0.04437871 44.89799845 -0.05395736 50.79385853 -0.0626936 C64.36764227 -0.08153692 77.94142756 -0.09171603 91.51522096 -0.10015428 C98.22161709 -0.10435972 104.92801233 -0.10958184 111.63440771 -0.11483881 C134.58710827 -0.13272953 157.53980908 -0.147726 180.49251556 -0.155159 C181.93369815 -0.15563376 183.37488074 -0.15610964 184.81606333 -0.15658666 C185.53076652 -0.15682303 186.2454697 -0.15705941 186.98183055 -0.15730295 C190.60292464 -0.15850416 194.22401872 -0.15971961 197.8451128 -0.16094494 C198.56373225 -0.16118509 199.28235169 -0.16142524 200.02274749 -0.16167267 C223.32467662 -0.16956645 246.62655487 -0.19299965 269.92846177 -0.22550088 C294.55932603 -0.25979306 319.19016051 -0.27950956 343.82104903 -0.28280324 C346.5245996 -0.28322078 349.22815016 -0.28370035 351.93170071 -0.28422642 C352.59740035 -0.28434961 353.2631 -0.2844728 353.94897236 -0.28459973 C364.00168933 -0.28678802 374.05435309 -0.30009121 384.1070509 -0.31926441 C395.54139162 -0.34093438 406.97563939 -0.34904007 418.40999832 -0.33929763 C424.24587582 -0.33474225 430.08156138 -0.33671108 435.91741276 -0.35605907 C441.25875894 -0.37361497 446.59977209 -0.37275465 451.94112144 -0.35716178 C453.87454353 -0.35477418 455.80798822 -0.35916859 457.74137565 -0.37099043 C460.36867437 -0.38606154 462.99478578 -0.3764703 465.62205505 -0.36076355 C466.3734759 -0.37098576 467.12489676 -0.38120796 467.89908794 -0.39173993 C474.250142 -0.30881855 479.62057268 1.65768396 484.18422413 6.16937733 C484.63926319 6.83840076 485.09430225 7.5074242 485.56313038 8.19672108 C486.03621632 8.86832264 486.50930225 9.5399242 486.99672413 10.23187733 C490.44381865 16.04064907 490.13178416 24.16087493 488.51234913 30.55609608 C486.1514383 35.922748 482.09940551 39.18263789 477.12563038 42.13422108 C473.45332984 43.35832126 470.07482864 43.2758757 466.25126076 43.26844215 C465.43639988 43.27079438 464.621539 43.27314661 463.78198537 43.27557012 C461.02801568 43.28227258 458.27409303 43.28180153 455.52011585 43.2813921 C453.53507372 43.28468994 451.55003225 43.28841534 449.56499165 43.29253358 C444.09165503 43.30257065 438.61832937 43.30627311 433.14498484 43.30892289 C427.24911921 43.31282086 421.3532623 43.32239952 415.45740223 43.33113575 C401.88361848 43.34997908 388.3098332 43.36015818 374.7360398 43.36859643 C368.02964366 43.37280187 361.32324843 43.378024 354.61685305 43.38328096 C331.66415249 43.40117169 308.71145168 43.41616815 285.75874519 43.42360115 C284.3175626 43.42407591 282.87638001 43.4245518 281.43519742 43.42502881 C280.72049424 43.42526519 280.00579106 43.42550156 279.26943021 43.4257451 C275.64833612 43.42694631 272.02724204 43.42816176 268.40614796 43.42938709 C267.68752851 43.42962724 266.96890906 43.42986739 266.22851327 43.43011482 C242.92658414 43.43800861 219.62470589 43.4614418 196.32279898 43.49394304 C171.69193473 43.52823522 147.06110025 43.54795172 122.43021172 43.55124539 C119.72666115 43.55166294 117.0231106 43.5521425 114.31956005 43.55266857 C113.32101058 43.55285336 113.32101058 43.55285336 112.30228839 43.55304188 C102.24957143 43.55523017 92.19690766 43.56853336 82.14420986 43.58770657 C70.70986914 43.60937653 59.27562137 43.61748222 47.84126244 43.60773978 C42.00538494 43.60318441 36.16969937 43.60515324 30.333848 43.62450123 C24.99250182 43.64205713 19.65148867 43.6411968 14.31013932 43.62560394 C12.37671723 43.62321634 10.44327253 43.62761074 8.50988511 43.63943259 C5.88258638 43.6545037 3.25647498 43.64491245 0.6292057 43.6292057 C-0.49792557 43.64453901 -0.49792557 43.64453901 -1.64782718 43.66018209 C-7.99888125 43.5772607 -13.36931192 41.6107582 -17.93296337 37.09906483 C-18.61552197 36.09552967 -18.61552197 36.09552967 -19.31186962 35.07172108 C-20.02149853 34.06431873 -20.02149853 34.06431873 -20.74546337 33.03656483 C-24.19255789 27.22779309 -23.8805234 19.10756723 -22.26108837 12.71234608 C-19.90017755 7.34569416 -15.84814475 4.08580426 -10.87436962 1.13422108 C-7.20206908 -0.0898791 -3.82356788 -0.00743354 0 0 Z " fill="#FFFFFF" transform="translate(22.874369621276855,326.86577892303467)"/>
<path d="M0 0 C1.22863781 -0.0061579 1.22863781 -0.0061579 2.48209658 -0.0124402 C5.24449372 -0.02380719 8.00669228 -0.02086246 10.76910877 -0.01802826 C12.76255248 -0.023194 14.75599411 -0.02921988 16.74943286 -0.03603506 C22.24139207 -0.05220003 27.73329903 -0.05575559 33.22527921 -0.05723 C39.14296939 -0.06092678 45.06063231 -0.07601928 50.97830677 -0.08950043 C64.59981386 -0.11810385 78.22131695 -0.12972249 91.84284784 -0.13888432 C98.57372949 -0.14355568 105.30460772 -0.15076092 112.03548671 -0.15827507 C135.0748699 -0.1839466 158.11425119 -0.20538491 181.15364838 -0.21228027 C182.60003151 -0.21272354 184.04641465 -0.21316711 185.49279778 -0.21361098 C186.94267989 -0.21405226 188.39256201 -0.21449322 189.84244412 -0.21493387 C192.7511706 -0.21581898 195.65989707 -0.21671321 198.56862354 -0.21761322 C199.65041677 -0.21794139 199.65041677 -0.21794139 200.75406441 -0.2182762 C224.13935712 -0.22553761 247.52452584 -0.25737841 270.90977107 -0.30399395 C295.63254612 -0.3531856 320.35525029 -0.38062572 345.07807571 -0.38301611 C347.79202006 -0.38335902 350.50596438 -0.38378988 353.21990871 -0.38428497 C354.22228675 -0.38445228 354.22228675 -0.38445228 355.24491485 -0.38462297 C365.33332951 -0.3867818 375.42162938 -0.40540058 385.510005 -0.43265533 C396.98568318 -0.46342671 408.46114888 -0.4737165 419.93686046 -0.45717913 C425.79320898 -0.44935509 431.64912937 -0.45127818 437.50542545 -0.47929382 C442.86666287 -0.50470689 448.22714907 -0.50243526 453.58838496 -0.4781124 C455.52785455 -0.47418698 457.46737676 -0.48040846 459.40677234 -0.49780113 C476.92065306 -0.64492287 476.92065306 -0.64492287 483.38940078 4.63439798 C489.61638432 11.03316128 490.52272425 15.93439934 490.44289112 24.89566803 C489.57431008 31.13497519 486.72709738 35.24924802 481.97414112 39.26285553 C476.50452501 42.71131108 471.92703494 43.84694845 465.52135372 43.7690134 C464.29637248 43.77818344 464.29637248 43.77818344 463.04664415 43.78753874 C460.31638 43.80311086 457.58700769 43.79028406 454.85674 43.77751923 C452.87705304 43.78284559 450.89737013 43.78991179 448.91769493 43.79856628 C443.48223353 43.81720862 438.04704431 43.81088303 432.61157155 43.80041325 C426.74777455 43.79342578 420.88403371 43.8094158 415.02025318 43.82241058 C403.53434393 43.84406368 392.04853371 43.84392025 380.56261076 43.83578504 C371.22744728 43.82948744 361.89230995 43.83052991 352.55714512 43.83705711 C351.21552669 43.83796845 349.87390826 43.83887921 348.53228983 43.8397894 C346.5105497 43.84117254 344.48880958 43.84256364 342.46706948 43.84397554 C323.67221869 43.85695523 304.87737867 43.86207202 286.08252621 43.85044193 C285.37413359 43.85000396 284.66574098 43.84956599 283.93588193 43.84911475 C278.18336135 43.84550798 272.43084092 43.84167318 266.6783205 43.83782382 C244.24123772 43.82297753 221.80427667 43.83175398 199.36720753 43.85977936 C174.15328161 43.89121305 148.93942775 43.90617537 123.72548187 43.89597934 C121.03657748 43.89494258 118.34767307 43.89395535 115.65876865 43.89299583 C114.99670266 43.89274695 114.33463666 43.89249806 113.65250805 43.89224163 C103.66195895 43.88880277 93.67149537 43.89815187 83.68096256 43.91376686 C72.31776756 43.93127941 60.954738 43.93118823 49.59154953 43.90841521 C43.79384086 43.89726313 37.99642378 43.89413275 32.19872761 43.91271591 C26.89008318 43.92951257 21.58198485 43.9231801 16.27337585 43.89849912 C14.35420586 43.89361281 12.43499188 43.89713971 10.51585867 43.90998656 C-8.72270025 44.02946499 -8.72270025 44.02946499 -16.02585888 38.26285553 C-21.89098705 32.00681636 -22.43326098 26.06073142 -22.37351513 17.79019928 C-21.75307915 11.49521405 -18.97813394 8.0722812 -14.46335888 3.88785553 C-9.52208453 0.59367263 -5.93626197 -0.0275183 0 0 Z " fill="#FFFFFF" transform="translate(22.025858879089355,-0.26285552978515625)"/>
</svg>
