<?xml version="1.0" encoding="UTF-8"?>
<svg version="1.1" xmlns="http://www.w3.org/2000/svg" width="457" height="116">
<path d="M0 0 C1.32 0 2.64 0 4 0 C3.28309689 3.45319401 1.97637945 6.41399987 0.48046875 9.6015625 C-0.30312012 11.27919678 -0.30312012 11.27919678 -1.10253906 12.99072266 C-1.67249734 14.20216194 -2.24248499 15.41358741 -2.8125 16.625 C-3.39460866 17.86878937 -3.9763093 19.11276977 -4.55761719 20.35693359 C-5.45779141 22.28352317 -6.35819156 24.21000267 -7.25985718 26.13589478 C-10.45071977 32.95296459 -13.60151661 39.78826568 -16.75 46.625 C-17.74449768 48.78398961 -18.73926378 50.94285561 -19.734375 53.1015625 C-20.14913086 54.00213379 -20.56388672 54.90270508 -20.99121094 55.83056641 C-21.64168405 57.22942993 -22.31008197 58.62016394 -23 60 C-14.42 60 -5.84 60 3 60 C3.99 57.03 3.99 57.03 5 54 C6.9375 50.625 6.9375 50.625 9 48 C9.99 48 10.98 48 12 48 C11.30460534 52.58960475 9.949627 55.45087033 8 60 C14.93 60.33 21.86 60.66 29 61 C29 61.99 29 62.98 29 64 C21.41 63.67 13.82 63.34 6 63 C3.89907479 68.40248326 3.89907479 68.40248326 3 74 C3.51949219 73.4946875 4.03898438 72.989375 4.57421875 72.46875 C5.27160156 71.8190625 5.96898437 71.169375 6.6875 70.5 C7.37199219 69.8503125 8.05648437 69.200625 8.76171875 68.53125 C11.40656372 66.72186216 12.86162389 66.6922083 16 67 C16.82638376 69.89234315 17 71.88742431 17 75 C17.66 74.67 18.32 74.34 19 74 C18.9690625 72.2984375 18.9690625 72.2984375 18.9375 70.5625 C19 67 19 67 20 66 C21.99958364 65.95919217 24.00045254 65.95745644 26 66 C26.33 66.99 26.66 67.98 27 69 C25.68 69.33 24.36 69.66 23 70 C23 70.99 23 71.98 23 73 C23.5576001 72.80365967 24.1152002 72.60731934 24.68969727 72.4050293 C43.96873866 65.66578144 62.86077545 61.34862358 83.33984375 60.796875 C84.96418335 60.75071045 84.96418335 60.75071045 86.62133789 60.70361328 C88.75687262 60.65201561 90.89293779 60.6185389 93.02905273 60.60498047 C94.00688721 60.58322754 94.98472168 60.56147461 95.9921875 60.5390625 C96.86214355 60.53084473 97.73209961 60.52262695 98.62841797 60.51416016 C103.7066466 59.41319768 106.15102183 54.52538888 108.87109375 50.44140625 C109.23000702 49.90433044 109.58892029 49.36725464 109.95870972 48.81390381 C111.12350127 47.06682616 112.28086709 45.31498766 113.4375 43.5625 C113.83440033 42.96440521 114.23130066 42.36631042 114.64022827 41.75009155 C121.04990823 32.09118191 127.26201104 22.32155275 133.30078125 12.42578125 C133.97874756 11.32097412 133.97874756 11.32097412 134.67041016 10.19384766 C135.58297299 8.68810223 136.47763274 7.17140431 137.35693359 5.64599609 C137.7895752 4.91074707 138.2222168 4.17549805 138.66796875 3.41796875 C139.23487427 2.43026489 139.23487427 2.43026489 139.81323242 1.42260742 C140.20486572 0.95314697 140.59649902 0.48368652 141 0 C141.99 0 142.98 0 144 0 C143.3433444 4.9188256 141.30512787 9.01808748 139.2109375 13.45703125 C138.82942535 14.27765549 138.44791321 15.09827972 138.05484009 15.94377136 C136.83331841 18.56909034 135.60455914 21.19093702 134.375 23.8125 C132.77600619 27.23444987 131.18016025 30.65785626 129.5859375 34.08203125 C129.00353302 35.33151047 129.00353302 35.33151047 128.40936279 36.60623169 C124.8122966 44.3493561 121.37690557 52.15874569 118 60 C118.65669678 59.99476318 119.31339355 59.98952637 119.98999023 59.98413086 C136.35580587 59.87214303 152.65334263 60.20280893 169 61 C169.33 61.99 169.66 62.98 170 64 C157.79 63.67 145.58 63.34 133 63 C132.67 64.32 132.34 65.64 132 67 C130.68 67.33 129.36 67.66 128 68 C128.33 66.68 128.66 65.36 129 64 C124.71 64 120.42 64 116 64 C114.67542631 67.16208024 113.36522322 70.32892671 112.0625 73.5 C111.50272461 74.8303125 111.50272461 74.8303125 110.93164062 76.1875 C108.32355761 82.5784782 107 88.05533125 107 95 C105.68 94.67 104.36 94.34 103 94 C102.60362741 86.8436731 103.78610032 81.67802759 106.4375 75.0625 C106.76298828 74.21365234 107.08847656 73.36480469 107.42382812 72.49023438 C109.68472343 66.63055314 109.68472343 66.63055314 111 64 C108.25198518 63.45427958 108.25198518 63.45427958 105 64 C102.63870805 65.85415345 100.89879127 68.13879786 99.0625 70.5 C98.2727478 71.46522583 98.2727478 71.46522583 97.46704102 72.44995117 C95.96313222 74.28852545 94.47955774 76.14181528 93 78 C82.122631 91.38921124 66.49284748 104.17260622 49 107 C38.11457963 107.90218837 27.56416802 106.45360544 18.375 100.1875 C14.83678022 97.17290683 13.11436208 94.60602993 12 90 C12.07100389 85.95784985 12.45431558 82.00387727 13 78 C12.41992188 78.08378906 11.83984375 78.16757813 11.2421875 78.25390625 C6.57684697 78.86209421 2.64557883 79.07205665 -2 78 C-2.33 77.01 -2.66 76.02 -3 75 C-3.556875 75.639375 -4.11375 76.27875 -4.6875 76.9375 C-7.25480849 79.22726163 -8.5778213 79.91225183 -12 80 C-13.65234375 78.50390625 -13.65234375 78.50390625 -15 77 C-16.27406288 79.03971112 -17.54429202 81.08165264 -18.8125 83.125 C-19.16892578 83.69476563 -19.52535156 84.26453125 -19.89257812 84.8515625 C-22.13935199 88.47938085 -24.14824719 92.15629859 -26 96 C-23.03 96 -20.06 96 -17 96 C-17 96.66 -17 97.32 -17 98 C-21.96073422 99.32286246 -26.91111512 99.08893197 -32 99 C-30.65072455 94.46152802 -28.80840652 90.68067754 -26.375 86.625 C-25.74335938 85.56539063 -25.11171875 84.50578125 -24.4609375 83.4140625 C-23.73777344 82.21910156 -23.73777344 82.21910156 -23 81 C-24.32 80.34 -25.64 79.68 -27 79 C-26.80839429 74.88047733 -26.22298348 73.25017659 -23.4375 70.125 C-19.68230077 67.27904998 -16.57838677 67.61846777 -12 68 C-9.75625048 68 -7.60431457 67.75477881 -5.375 67.5 C-4.55773437 67.4071875 -3.74046875 67.314375 -2.8984375 67.21875 C-1.95871094 67.11046875 -1.95871094 67.11046875 -1 67 C-0.67 65.68 -0.34 64.36 0 63 C-8.25 63 -16.5 63 -25 63 C-25.99 65.97 -26.98 68.94 -28 72 C-28.45761719 73.28003906 -28.91523438 74.56007813 -29.38671875 75.87890625 C-32.69386001 85.19802222 -32.69386001 85.19802222 -33 95 C-36.875 94.125 -36.875 94.125 -38 93 C-38.08507883 85.51497453 -35.84869049 79.16274986 -32.9375 72.375 C-32.56044922 71.46621094 -32.18339844 70.55742188 -31.79492188 69.62109375 C-30.87506913 67.40878969 -29.94344042 65.20232269 -29 63 C-34.02398803 63.2836829 -34.02398803 63.2836829 -38.1171875 65.93359375 C-38.69726562 66.75988281 -39.27734375 67.58617188 -39.875 68.4375 C-52.90704173 86.01328042 -69.5638037 103.17753693 -92 107 C-105.03869497 107.88861355 -115.48858511 105.54841298 -125.4375 96.875 C-128.48092102 93.22289477 -128.38772777 89.57518774 -128 85 C-126 81.5625 -126 81.5625 -124 79 C-124.763125 79.226875 -125.52625 79.45375 -126.3125 79.6875 C-127.199375 79.790625 -128.08625 79.89375 -129 80 C-130.02104551 79.02149805 -131.0206121 78.02019573 -132 77 C-134.62570704 76.74930087 -134.62570704 76.74930087 -137 77 C-137.33 75.02 -137.66 73.04 -138 71 C-138.44988281 71.5775 -138.89976562 72.155 -139.36328125 72.75 C-144.51115893 78.69223956 -144.51115893 78.69223956 -148.91015625 79.6015625 C-151.71341462 79.62372265 -154.25322799 79.56415183 -157 79 C-157.66 78.34 -158.32 77.68 -159 77 C-158.79396437 74.32153683 -158.33094125 72.5147975 -156.875 70.25 C-153.33901353 67.89267568 -149.14230166 68 -145 68 C-144.74831055 67.43490723 -144.49662109 66.86981445 -144.23730469 66.28759766 C-143.08802149 63.72725595 -141.91932207 61.17624815 -140.75 58.625 C-140.15638672 57.29082031 -140.15638672 57.29082031 -139.55078125 55.9296875 C-139.15761719 55.07890625 -138.76445312 54.228125 -138.359375 53.3515625 C-138.00327148 52.56604004 -137.64716797 51.78051758 -137.28027344 50.97119141 C-135.78777667 48.6732473 -134.51808805 47.98958073 -132 47 C-132.5746621 51.78642607 -133.98245643 55.53788787 -136.0625 59.875 C-136.61035156 61.02742188 -137.15820312 62.17984375 -137.72265625 63.3671875 C-138.14417969 64.23601562 -138.56570312 65.10484375 -139 66 C-138.195625 65.979375 -137.39125 65.95875 -136.5625 65.9375 C-134 66 -134 66 -133 67 C-132.95919217 68.99958364 -132.95745644 71.00045254 -133 73 C-132.01 73 -131.02 73 -130 73 C-129.731875 72.38125 -129.46375 71.7625 -129.1875 71.125 C-128 69 -128 69 -125 67 C-123.88496094 66.80664062 -122.76992187 66.61328125 -121.62109375 66.4140625 C-116.45270898 64.39577201 -115.32931528 61.23189814 -113.0625 56.375 C-112.46598633 55.17230469 -112.46598633 55.17230469 -111.85742188 53.9453125 C-110.88300255 51.97299387 -109.93202712 49.9926097 -109 48 C-107.68 48 -106.36 48 -105 48 C-107.58125669 56.17397951 -110.77011881 64.06640834 -114 72 C-113.28199219 71.68546875 -112.56398437 71.3709375 -111.82421875 71.046875 C-94.47639346 63.8744242 -75.55498751 61.24863853 -56.8671875 60.8359375 C-55.82981445 60.80910889 -54.79244141 60.78228027 -53.72363281 60.75463867 C-51.69991371 60.71079036 -49.67555826 60.68913697 -47.65136719 60.69262695 C-42.02164788 60.59224001 -42.02164788 60.59224001 -37.1796875 57.92578125 C-36.46039063 56.96027344 -35.74109375 55.99476562 -35 55 C-34.57541504 54.45045654 -34.15083008 53.90091309 -33.71337891 53.3347168 C-32.26000046 51.4209723 -30.87538297 49.47050505 -29.5 47.5 C-28.98518066 46.76587891 -28.47036133 46.03175781 -27.93994141 45.27539062 C-20.47223279 34.49595473 -13.53359518 23.31144933 -7.09765625 11.88671875 C-6.64664551 11.09265625 -6.19563477 10.29859375 -5.73095703 9.48046875 C-4.88848874 7.98698778 -4.05928565 6.4859209 -3.24560547 4.9765625 C-2.12109375 2.98046875 -2.12109375 2.98046875 0 0 Z M124 34 C125 36 125 36 125 36 Z M-17 35 C-16 37 -16 37 -16 37 Z M123 36 C122.47829224 36.78648926 122.47829224 36.78648926 121.94604492 37.58886719 C120.36109015 39.97672842 118.77431366 42.36337369 117.1875 44.75 C116.36668945 45.9875 116.36668945 45.9875 115.52929688 47.25 C114.73168945 48.44882812 114.73168945 48.44882812 113.91796875 49.671875 C113.43094482 50.4050293 112.9439209 51.13818359 112.44213867 51.89355469 C111.4485337 53.34485377 110.40292661 54.7614397 109.31762695 56.14550781 C107.80693471 57.89257537 107.80693471 57.89257537 108 60 C109.65 60 111.3 60 113 60 C113.54269531 58.91460937 114.08539063 57.82921875 114.64453125 56.7109375 C116.08203125 53.8359375 117.51953125 50.9609375 118.95703125 48.0859375 C119.30072754 47.39338867 119.64442383 46.70083984 119.99853516 45.98730469 C120.91087529 44.17685889 121.86538772 42.3878216 122.82421875 40.6015625 C123.21222656 39.74304687 123.60023438 38.88453125 124 38 C123.67 37.34 123.34 36.68 123 36 Z M-18 37 C-20.50373124 40.6432841 -23.00235646 44.29004038 -25.5 47.9375 C-26.57314453 49.49887695 -26.57314453 49.49887695 -27.66796875 51.09179688 C-28.34472656 52.08115234 -29.02148438 53.07050781 -29.71875 54.08984375 C-30.66137695 55.46450806 -30.66137695 55.46450806 -31.62304688 56.86694336 C-33.09039098 58.7168786 -33.09039098 58.7168786 -33 60 C-31.02 60 -29.04 60 -27 60 C-25.29969216 56.54781943 -23.61696948 53.08736011 -21.9375 49.625 C-21.45216797 48.64015625 -20.96683594 47.6553125 -20.46679688 46.640625 C-20.01240234 45.69960938 -19.55800781 44.75859375 -19.08984375 43.7890625 C-18.66566162 42.91975098 -18.24147949 42.05043945 -17.80444336 41.15478516 C-17.53897705 40.44370605 -17.27351074 39.73262695 -17 39 C-17.33 38.34 -17.66 37.68 -18 37 Z M-110.9375 75 C-113 77 -113 77 -115.9375 77.875 C-120.07969253 79.39662175 -121.63369895 81.31135424 -124 85 C-124.70957546 88.54787729 -124.76150721 90.68190025 -122.92578125 93.859375 C-118.62469975 99.37418634 -112.86037217 102.69785555 -106 104 C-88.5522288 105.38946983 -76.89241462 100.05168099 -63.48046875 88.90625 C-55.30150186 81.79634492 -47.45840737 73.71134018 -41 65 C-41 64.34 -41 63.68 -41 63 C-78.06311361 61.80775468 -78.06311361 61.80775468 -110.9375 75 Z M25 77 C24.35232207 79.57061311 24.35232207 79.57061311 24 82 C21.69 82.66 19.38 83.32 17 84 C16.02508737 88.06213595 15.66662144 90.27526401 17.4375 94.125 C22.9094881 100.26430372 29.68241323 103.58735338 37.8828125 104.37109375 C57.06355274 104.93192094 70.80297409 95.38484034 84.42578125 82.6171875 C90.2997049 76.64521657 95.57555789 70.11758079 100 63 C60.22964533 62.04699974 60.22964533 62.04699974 25 77 Z M-124 70 C-126.20142332 72.4390706 -126.20142332 72.4390706 -128 75 C-127.67 75.66 -127.34 76.32 -127 77 C-125.02 74.69 -123.04 72.38 -121 70 C-121.99 70 -122.98 70 -124 70 Z M-7 70 C-7.99 70.99 -8.98 71.98 -10 73 C-9.67 73.99 -9.34 74.98 -9 76 C-7.35 74.35 -5.7 72.7 -4 71 C-4.99 70.67 -5.98 70.34 -7 70 Z M12 70 C11.01 71.485 11.01 71.485 10 73 C11.32 72.34 12.64 71.68 14 71 C13.34 70.67 12.68 70.34 12 70 Z M-153.6875 72.5 C-154.120625 72.995 -154.55375 73.49 -155 74 C-154.67 74.99 -154.34 75.98 -154 77 C-152.2925002 75.71937515 -150.62626404 74.38232443 -149 73 C-149 72.34 -149 71.68 -149 71 C-152.00259517 70.66781808 -152.00259517 70.66781808 -153.6875 72.5 Z M-21.125 73 C-21.74375 73.66 -22.3625 74.32 -23 75 C-22.67 75.66 -22.34 76.32 -22 77 C-20.2925002 75.71937515 -18.62626404 74.38232443 -17 73 C-17 72.34 -17 71.68 -17 71 C-19.24362573 70.7715451 -19.24362573 70.7715451 -21.125 73 Z M-120 74 C-120.33 74.66 -120.66 75.32 -121 76 C-120.34 76 -119.68 76 -119 76 C-119.33 75.34 -119.66 74.68 -120 74 Z " fill="#E6C65C" transform="translate(283,5)"/>
<path d="M0 0 C1.80874734 3.61749468 0.88009768 7.21507127 0 11 C-9.32389494 36.82930119 -24.5579718 64.76799839 -42 86 C-42.66 86 -43.32 86 -44 86 C-43.63190929 79.8319935 -40.59616968 75.7630912 -37.3125 70.75 C-27.22269091 54.88794703 -18.42457445 38.29775 -10.25 21.375 C-9.84370361 20.54097656 -9.43740723 19.70695312 -9.01879883 18.84765625 C-6.70498436 13.95264429 -5.13914868 9.2958295 -4 4 C-23.76361972 6.84394528 -42.58049688 29.55145777 -55 44 C-56.70773692 45.97164547 -58.41713486 47.94184493 -60.12646484 49.91210938 C-62.75274656 52.93987443 -65.37633724 55.96996542 -68 59 C-69.65 58.67 -71.3 58.34 -73 58 C-72.54321462 56.14545138 -72.0844894 54.29138051 -71.625 52.4375 C-71.24214844 50.88869141 -71.24214844 50.88869141 -70.8515625 49.30859375 C-69.96182434 45.85167532 -68.99427833 42.42809877 -68 39 C-70.06871208 41.76624115 -72.12953565 44.53825436 -74.1875 47.3125 C-74.81446777 48.1566748 -75.44143555 49.00084961 -76.08740234 49.87060547 C-79.38275619 54.33903589 -82.5995664 58.83973038 -85.68359375 63.45703125 C-86.26278564 64.32352295 -86.84197754 65.19001465 -87.4387207 66.08276367 C-88.547672 67.75461974 -89.64679219 69.43304603 -90.73510742 71.1184082 C-91.2376001 71.87597412 -91.74009277 72.63354004 -92.2578125 73.4140625 C-92.6923877 74.0838916 -93.12696289 74.7537207 -93.57470703 75.44384766 C-95.2927708 77.31965075 -96.52197259 77.6261454 -99 78 C-98.60307951 71.79175638 -95.55270261 67.32548878 -92.4375 62.125 C-77.61084068 38.97445805 -77.61084068 38.97445805 -73 13 C-73.88329643 10.46041766 -73.88329643 10.46041766 -76 9 C-85.98569859 5.81307492 -96.41045666 11.31866795 -105.19458008 15.80761719 C-110.79494888 18.77160444 -115.97731697 22.13195675 -121 26 C-122.0725 26.763125 -123.145 27.52625 -124.25 28.3125 C-129.31201013 33.25946445 -132.5089081 39.41975724 -135 46 C-135.99 46 -136.98 46 -138 46 C-137.16297647 35.74646178 -131.63491598 29.50988544 -124 23 C-110.68427092 13.11684367 -93.12514044 3.10993433 -76 5 C-71.88724091 6.54228466 -70.44219062 7.33671407 -68 11 C-66.88716384 19.38509104 -68.63146801 26.36065066 -72 34 C-71.67 34.33 -71.34 34.66 -71 35 C-70.61328125 34.4946875 -70.2265625 33.989375 -69.828125 33.46875 C-69.30734375 32.8190625 -68.7865625 32.169375 -68.25 31.5 C-67.73953125 30.8503125 -67.2290625 30.200625 -66.703125 29.53125 C-65 28 -65 28 -61 28 C-60.78455994 33.23115393 -61.47629807 37.43785303 -63 42.4375 C-63.37125 43.67371094 -63.7425 44.90992188 -64.125 46.18359375 C-64.41375 47.11300781 -64.7025 48.04242188 -65 49 C-64.59910156 48.53851563 -64.19820313 48.07703125 -63.78515625 47.6015625 C-59.63276604 42.83714199 -55.4252292 38.12651791 -51.18359375 33.44140625 C-49.27081445 31.30278897 -47.41404267 29.12885521 -45.5625 26.9375 C-39.28729571 19.80463681 -32.24542324 13.96381608 -24.375 8.6875 C-23.76591797 8.27902832 -23.15683594 7.87055664 -22.52929688 7.44970703 C-8.1452966 -1.94778832 -8.1452966 -1.94778832 0 0 Z M-74 37 C-73 39 -73 39 -73 39 Z " fill="#E9C659" transform="translate(142,23)"/>
<path d="M0 0 C1.4540625 0.0309375 1.4540625 0.0309375 2.9375 0.0625 C3.2675 1.0525 3.5975 2.0425 3.9375 3.0625 C2.6175 3.0625 1.2975 3.0625 -0.0625 3.0625 C-0.0625 4.0525 -0.0625 5.0425 -0.0625 6.0625 C0.845 5.753125 1.7525 5.44375 2.6875 5.125 C5.10313338 4.3352737 7.46530285 3.63300703 9.9375 3.0625 C9.2775 5.0425 8.6175 7.0225 7.9375 9.0625 C9.2575 9.0625 10.5775 9.0625 11.9375 9.0625 C12.205625 7.928125 12.47375 6.79375 12.75 5.625 C13.141875 4.449375 13.53375 3.27375 13.9375 2.0625 C14.9275 1.7325 15.9175 1.4025 16.9375 1.0625 C17.2675 2.3825 17.5975 3.7025 17.9375 5.0625 C18.535625 4.7325 19.13375 4.4025 19.75 4.0625 C21.9375 3.0625 21.9375 3.0625 24.9375 3.0625 C24.9375 3.7225 24.9375 4.3825 24.9375 5.0625 C25.865625 4.546875 26.79375 4.03125 27.75 3.5 C30.9375 2.0625 30.9375 2.0625 33.9375 3.0625 C33.6075 4.7125 33.2775 6.3625 32.9375 8.0625 C33.9275 7.4025 34.9175 6.7425 35.9375 6.0625 C36.9275 6.0625 37.9175 6.0625 38.9375 6.0625 C37.56766497 9.22365776 36.9484362 10.0552092 33.9375 12.0625 C30.75 12.1875 30.75 12.1875 27.9375 12.0625 C27.9375 10.7425 27.9375 9.4225 27.9375 8.0625 C27.46699219 8.43503906 26.99648438 8.80757812 26.51171875 9.19140625 C25.88910156 9.66449219 25.26648438 10.13757813 24.625 10.625 C24.01011719 11.10066406 23.39523437 11.57632813 22.76171875 12.06640625 C22.15972656 12.39511719 21.55773437 12.72382812 20.9375 13.0625 C19.9475 12.7325 18.9575 12.4025 17.9375 12.0625 C17.9375 11.4025 17.9375 10.7425 17.9375 10.0625 C17.38578125 10.55363281 16.8340625 11.04476562 16.265625 11.55078125 C13.47379931 13.36359424 11.97564259 13.3797951 8.6875 13.25 C7.79546875 13.22292969 6.9034375 13.19585937 5.984375 13.16796875 C5.30890625 13.13316406 4.6334375 13.09835938 3.9375 13.0625 C3.2775 11.7425 2.6175 10.4225 1.9375 9.0625 C1.999375 10.17625 2.06125 11.29 2.125 12.4375 C2.063125 13.63375 2.00125 14.83 1.9375 16.0625 C-1.26630017 18.19836678 -2.08189967 18.29382175 -5.75 18.1875 C-6.96236328 18.16042969 -6.96236328 18.16042969 -8.19921875 18.1328125 C-8.81410156 18.10960938 -9.42898438 18.08640625 -10.0625 18.0625 C-10.4375 15.8125 -10.4375 15.8125 -10.0625 13.0625 C-8.5775 12.1653125 -8.5775 12.1653125 -7.0625 11.25 C-3.90080268 9.47241787 -3.90080268 9.47241787 -3.69921875 7.0703125 C-3.74561453 5.06458705 -3.89860196 3.06205609 -4.0625 1.0625 C-3.0625 0.0625 -3.0625 0.0625 0 0 Z M-3.0625 12.0625 C-4.0525 13.0525 -5.0425 14.0425 -6.0625 15.0625 C-4.7425 15.0625 -3.4225 15.0625 -2.0625 15.0625 C-2.3925 14.0725 -2.7225 13.0825 -3.0625 12.0625 Z " fill="#DFC059" transform="translate(403.0625,70.9375)"/>
<path d="M0 0 C-0.99 0.33 -1.98 0.66 -3 1 C-3.33 1.66 -3.66 2.32 -4 3 C-4.71027344 2.65839844 -5.42054687 2.31679688 -6.15234375 1.96484375 C-13.72730031 -0.60170532 -22.80552361 3.27752628 -29.78515625 6.38671875 C-45.22699088 14.13578036 -57.6147173 22.23117348 -64 39 C-64.99 39 -65.98 39 -67 39 C-66.16297647 28.74646178 -60.63491598 22.50988544 -53 16 C-40.13031468 6.44790479 -16.25404941 -8.66882635 0 0 Z " fill="#DDC266" transform="translate(71,30)"/>
<path d="M0 0 C0 0.66 0 1.32 0 2 C-2.37094708 3.18547354 -4.0611965 3.23144032 -6.70703125 3.39453125 C-26.47128248 4.74239269 -44.64739879 7.37264016 -63 15 C-63.99 15.33 -64.98 15.66 -66 16 C-66.33 14.68 -66.66 13.36 -67 12 C-45.06295105 4.2755977 -23.38865564 -0.74380884 0 0 Z " fill="#E2C769" transform="translate(373,66)"/>
<path d="M0 0 C0.99 0 1.98 0 3 0 C2.35497977 4.2571335 0.88686447 7.72598719 -0.94140625 11.61328125 C-1.22853989 12.22769577 -1.51567352 12.84211029 -1.81150818 13.47514343 C-2.72339838 15.42337328 -3.64281193 17.367941 -4.5625 19.3125 C-5.18474626 20.63843666 -5.80649639 21.96460626 -6.42773438 23.29101562 C-7.94609035 26.5300596 -9.47121103 29.76586484 -11 33 C-11.66 33 -12.32 33 -13 33 C-13 33.66 -13 34.32 -13 35 C-13.66 35 -14.32 35 -15 35 C-15.75096623 24.67421434 -10.67943339 17.03257297 -5.4375 8.4375 C-4.71530273 7.21063477 -4.71530273 7.21063477 -3.97851562 5.95898438 C-3.50994141 5.18748047 -3.04136719 4.41597656 -2.55859375 3.62109375 C-1.92908813 2.57586548 -1.92908813 2.57586548 -1.28686523 1.50952148 C-0.86219971 1.01137939 -0.43753418 0.5132373 0 0 Z " fill="#ECC54C" transform="translate(424,5)"/>
<path d="M0 0 C16.02862903 -0.14834983 31.98937135 0.23845713 48 1 C48.495 2.485 48.495 2.485 49 4 C30.685 3.505 30.685 3.505 12 3 C11.67 4.32 11.34 5.64 11 7 C9.68 7.33 8.36 7.66 7 8 C7.33 6.68 7.66 5.36 8 4 C5.69 3.67 3.38 3.34 1 3 C0.67 2.01 0.34 1.02 0 0 Z " fill="#E4C769" transform="translate(404,65)"/>
<path d="M0 0 C0.99 0.33 1.98 0.66 3 1 C-0.62035763 17.2093285 -0.62035763 17.2093285 -4 22 C-6.12890625 22.73828125 -6.12890625 22.73828125 -8 23 C-7.44271087 19.65626525 -6.64826111 16.96687001 -5 14 C-5.99 14 -6.98 14 -8 14 C-7.32034502 8.22293268 -4.27394844 3.8465536 0 0 Z " fill="#E8C358" transform="translate(272,26)"/>
<path d="M0 0 C1.05609899 3.16829698 1.13055309 3.98519175 0 7 C-1 8 -2 9 -3 10 C-3 10.99 -3 11.98 -3 13 C-2.34 13.33 -1.68 13.66 -1 14 C-2.25868903 15.84169226 -3.53233526 17.67317031 -4.8125 19.5 C-5.52019531 20.5209375 -6.22789063 21.541875 -6.95703125 22.59375 C-7.63121094 23.3878125 -8.30539063 24.181875 -9 25 C-9.99 25 -10.98 25 -12 25 C-11.60371636 18.80171737 -8.56401147 14.30852962 -5.4375 9.125 C-4.91736328 8.24585937 -4.39722656 7.36671875 -3.86132812 6.4609375 C-2.58249688 4.3021765 -1.29527161 2.14892274 0 0 Z " fill="#E9C757" transform="translate(55,76)"/>
<path d="M0 0 C0 0.99 0 1.98 0 3 C-0.70125 3.515625 -1.4025 4.03125 -2.125 4.5625 C-7.46406114 9.08909531 -10.55263724 15.51622851 -13 22 C-13.99 22 -14.98 22 -16 22 C-15.26205764 12.96020606 -11.12698824 7.8002357 -4.90234375 1.50390625 C-3 0 -3 0 0 0 Z " fill="#E5C35F" transform="translate(20,47)"/>
<path d="M0 0 C8.58 0 17.16 0 26 0 C25.01 0.495 25.01 0.495 24 1 C24 2.65 24 4.3 24 6 C23.34 5.67 22.68 5.34 22 5 C22.33 4.34 22.66 3.68 23 3 C14.75 3 6.5 3 -2 3 C-1.34 2.67 -0.68 2.34 0 2 C0 1.34 0 0.68 0 0 Z " fill="#E8CA69" transform="translate(260,65)"/>
<path d="M0 0 C1.32 0 2.64 0 4 0 C1.54234965 7.91909556 -1.66818573 15.41985296 -5 23 C-6.13643966 19.59068103 -5.86747764 18.99664544 -4.5625 15.8125 C-4.27503906 15.09707031 -3.98757812 14.38164063 -3.69140625 13.64453125 C-3.34916016 12.83048828 -3.34916016 12.83048828 -3 12 C-3.66 12 -4.32 12 -5 12 C-5.2165625 12.928125 -5.2165625 12.928125 -5.4375 13.875 C-6 16 -6 16 -7 18 C-7.66 17.67 -8.32 17.34 -9 17 C-6.03 11.39 -3.06 5.78 0 0 Z " fill="#E8C85D" transform="translate(174,53)"/>
<path d="M0 0 C0.99 0 1.98 0 3 0 C2.37183502 3.94949704 1.1354471 7.19892028 -0.5625 10.8125 C-1.01753906 11.78832031 -1.47257812 12.76414062 -1.94140625 13.76953125 C-2.29074219 14.50558594 -2.64007813 15.24164063 -3 16 C-4 13 -4 13 -4 11 C-4.72316406 12.17369141 -4.72316406 12.17369141 -5.4609375 13.37109375 C-6.09257812 14.38300781 -6.72421875 15.39492188 -7.375 16.4375 C-8.00148438 17.44683594 -8.62796875 18.45617187 -9.2734375 19.49609375 C-11 22 -11 22 -13 23 C-11.05083212 17.86518024 -8.39903472 13.37314471 -5.5625 8.6875 C-5.07201172 7.85154297 -4.58152344 7.01558594 -4.07617188 6.15429688 C-3.59857422 5.36474609 -3.12097656 4.57519531 -2.62890625 3.76171875 C-2.19650635 3.03944092 -1.76410645 2.31716309 -1.31860352 1.57299805 C-0.88346436 1.05390869 -0.4483252 0.53481934 0 0 Z " fill="#E1C466" transform="translate(424,5)"/>
<path d="M0 0 C0.66 0 1.32 0 2 0 C1.855625 0.66 1.71125 1.32 1.5625 2 C0.87060429 5.69011045 0.30714056 9.25288514 0 13 C0.66 13.66 1.32 14.32 2 15 C-0.31 15.33 -2.62 15.66 -5 16 C-5.28875 15.030625 -5.5775 14.06125 -5.875 13.0625 C-6.64214682 9.89335797 -6.64214682 9.89335797 -9 9 C-7.68 8.67 -6.36 8.34 -5 8 C-5 7.34 -5 6.68 -5 6 C-4.01 6 -3.02 6 -2 6 C-1.34 4.02 -0.68 2.04 0 0 Z " fill="#F1CA48" transform="translate(169,65)"/>
<path d="M0 0 C2.94338322 4.41507484 1.71284869 8.21736991 1.21875 13.37109375 C0.95853853 16.05861272 0.95853853 16.05861272 1 19 C-0.32 18.67 -1.64 18.34 -3 18 C-3.31985731 11.28299653 -2.4793824 6.24273068 0 0 Z " fill="#EAC85C" transform="translate(389,81)"/>
<path d="M0 0 C0.98613281 0.00322266 1.97226562 0.00644531 2.98828125 0.00976562 C4.02082031 0.01814453 5.05335938 0.02652344 6.1171875 0.03515625 C7.67759766 0.04192383 7.67759766 0.04192383 9.26953125 0.04882812 C11.84380712 0.06063673 14.41796896 0.0771055 16.9921875 0.09765625 C16.9921875 1.08765625 16.9921875 2.07765625 16.9921875 3.09765625 C5.6071875 2.60265625 5.6071875 2.60265625 -6.0078125 2.09765625 C-6.6678125 3.41765625 -7.3278125 4.73765625 -8.0078125 6.09765625 C-7.6328125 3.66015625 -7.6328125 3.66015625 -7.0078125 1.09765625 C-4.50284246 -0.15482877 -2.79927976 -0.01608781 0 0 Z " fill="#DABC5D" transform="translate(295.0078125,65.90234375)"/>
<path d="M0 0 C1 2 1 2 1.3125 5.3125 C2.06307368 9.33830429 3.23564917 11.05730395 6 14 C5.01 15.485 5.01 15.485 4 17 C0.00692215 14.22220672 -2.21133443 12.50473321 -3.375 7.6875 C-3.58125 6.470625 -3.7875 5.25375 -4 4 C-3.01 4.495 -3.01 4.495 -2 5 C-1.34 3.35 -0.68 1.7 0 0 Z " fill="#ECCD64" transform="translate(299,89)"/>
<path d="M0 0 C0.66 0 1.32 0 2 0 C2.33 0.99 2.66 1.98 3 3 C1.88671875 5.171875 1.88671875 5.171875 0 7 C-2.48046875 7.390625 -2.48046875 7.390625 -5.1875 7.25 C-6.08855469 7.21390625 -6.98960937 7.1778125 -7.91796875 7.140625 C-8.60503906 7.09421875 -9.29210937 7.0478125 -10 7 C-10.33 6.01 -10.66 5.02 -11 4 C-10.34 4 -9.68 4 -9 4 C-8.67 3.01 -8.34 2.02 -8 1 C-7.67 1.99 -7.34 2.98 -7 4 C-6.071875 3.7215625 -6.071875 3.7215625 -5.125 3.4375 C-3 3 -3 3 -1 4 C-0.67 2.68 -0.34 1.36 0 0 Z " fill="#E9C651" transform="translate(417,77)"/>
<path d="M0 0 C0.99 0 1.98 0 3 0 C2.33501617 4.38889325 0.81242323 7.9811485 -1 12 C-2.65 11.67 -4.3 11.34 -6 11 C-5.18993474 9.35296694 -4.3768779 7.70740494 -3.5625 6.0625 C-3.11003906 5.14597656 -2.65757812 4.22945312 -2.19140625 3.28515625 C-1 1 -1 1 0 0 Z " fill="#E7C960" transform="translate(292,53)"/>
<path d="M0 0 C1.32 0.33 2.64 0.66 4 1 C4 2.65 4 4.3 4 6 C2.02 6.33 0.04 6.66 -2 7 C-1.67 7.66 -1.34 8.32 -1 9 C-2.65 9.33 -4.3 9.66 -6 10 C-6.3125 7.6875 -6.3125 7.6875 -6 5 C-3.5625 3.3125 -3.5625 3.3125 -1 2 C-0.67 1.34 -0.34 0.68 0 0 Z " fill="#E8C34F" transform="translate(400,78)"/>
<path d="M0 0 C2.46256988 0.70281476 2.46256988 0.70281476 5.6875 0.5 C9.33538301 0.56289453 11.93626387 1.24494444 15.3125 2.5625 C15.3125 2.8925 15.3125 3.2225 15.3125 3.5625 C14.384375 3.60375 13.45625 3.645 12.5 3.6875 C9.02302362 4.25109031 9.02302362 4.25109031 7.4375 7.625 C6.880625 9.0790625 6.880625 9.0790625 6.3125 10.5625 C5.9825 9.9025 5.6525 9.2425 5.3125 8.5625 C5.6425 7.5725 5.9725 6.5825 6.3125 5.5625 C3.30632731 2.55632731 0.48868402 2.96664684 -3.6875 2.5625 C-3.6875 1.9025 -3.6875 1.2425 -3.6875 0.5625 C-1.6875 -0.4375 -1.6875 -0.4375 0 0 Z " fill="#E7BF45" transform="translate(389.6875,64.4375)"/>
<path d="M0 0 C0.66 0 1.32 0 2 0 C1.43174347 5.54050113 -0.62886517 10.03715966 -3 15 C-3.33 14.01 -3.66 13.02 -4 12 C-4.66 12 -5.32 12 -6 12 C-4.68448876 7.39571066 -2.90803514 3.81679612 0 0 Z " fill="#E6CA66" transform="translate(149,52)"/>
<path d="M0 0 C7.26 0 14.52 0 22 0 C22.33 0.99 22.66 1.98 23 3 C19.72847382 2.89013032 16.45809886 2.7595003 13.1875 2.625 C12.25873047 2.5940625 11.32996094 2.563125 10.37304688 2.53125 C9.48037109 2.49257812 8.58769531 2.45390625 7.66796875 2.4140625 C6.43469849 2.36693115 6.43469849 2.36693115 5.17651367 2.31884766 C3 2 3 2 0 0 Z " fill="#D8BB63" transform="translate(430,66)"/>
<path d="M0 0 C0.99 0.33 1.98 0.66 3 1 C2.40138258 3.35171131 1.73075648 5.6859378 1 8 C0.01 8.495 0.01 8.495 -1 9 C-2.13350534 11.01669827 -2.13350534 11.01669827 -3 13 C-3.99 12.67 -4.98 12.34 -6 12 C-4.25807076 7.76960042 -2.46440486 3.8726362 0 0 Z " fill="#EAC141" transform="translate(272,26)"/>
<path d="M0 0 C0.33 0 0.66 0 1 0 C0.54177532 3.46941546 0.10868317 6.67395049 -1 10 C-0.34 10 0.32 10 1 10 C1.33 12.64 1.66 15.28 2 18 C-1.875 17.125 -1.875 17.125 -3 16 C-2.86369127 10.43231263 -2.05123536 5.19646291 0 0 Z " fill="#E4C763" transform="translate(248,82)"/>
<path d="M0 0 C0.33 0.99 0.66 1.98 1 3 C-0.4375 5.6875 -0.4375 5.6875 -2 8 C-0.35 8 1.3 8 3 8 C3 7.34 3 6.68 3 6 C5.64 6 8.28 6 11 6 C11 6.66 11 7.32 11 8 C6.03926578 9.32286246 1.08888488 9.08893197 -4 9 C-2.94124926 5.59687262 -1.99097846 2.98646769 0 0 Z " fill="#DAC171" transform="translate(255,95)"/>
<path d="M0 0 C0.33 0.66 0.66 1.32 1 2 C1.66 2.33 2.32 2.66 3 3 C-1.25347222 7.73958333 -1.25347222 7.73958333 -4.6875 8.9375 C-5.450625 8.958125 -6.21375 8.97875 -7 9 C-7.66 8.34 -8.32 7.68 -9 7 C-4.25 4 -4.25 4 -2 4 C-1.34 2.68 -0.68 1.36 0 0 Z " fill="#E8CB5E" transform="translate(278,76)"/>
<path d="M0 0 C1.4540625 0.0309375 1.4540625 0.0309375 2.9375 0.0625 C3.2675 1.0525 3.5975 2.0425 3.9375 3.0625 C3.298125 3.165625 2.65875 3.26875 2 3.375 C1.319375 3.601875 0.63875 3.82875 -0.0625 4.0625 C-0.3925 5.0525 -0.7225 6.0425 -1.0625 7.0625 C-1.3925 7.7225 -1.7225 8.3825 -2.0625 9.0625 C-2.7225 8.7325 -3.3825 8.4025 -4.0625 8.0625 C-4.10491723 5.72955225 -4.10342937 3.39547433 -4.0625 1.0625 C-3.0625 0.0625 -3.0625 0.0625 0 0 Z " fill="#E4C15D" transform="translate(306.0625,70.9375)"/>
<path d="M0 0 C0 1.98 0 3.96 0 6 C-0.66 6 -1.32 6 -2 6 C-2 6.66 -2 7.32 -2 8 C-1.34 8.33 -0.68 8.66 0 9 C-0.99 9 -1.98 9 -3 9 C-3.12117187 8.43410156 -3.24234375 7.86820313 -3.3671875 7.28515625 C-3.61855469 6.18494141 -3.61855469 6.18494141 -3.875 5.0625 C-4.03742188 4.33160156 -4.19984375 3.60070312 -4.3671875 2.84765625 C-4.82961523 0.79299706 -4.82961523 0.79299706 -7 0 C-4.3333581 -1.33332095 -2.83319697 -0.67102033 0 0 Z " fill="#EDC953" transform="translate(150,72)"/>
<path d="M0 0 C0.4125 0.639375 0.825 1.27875 1.25 1.9375 C3.17810487 4.20990931 4.11424181 4.60196439 7 5 C5.35 6.65 3.7 8.3 2 10 C1.67 8.35 1.34 6.7 1 5 C0.34 5 -0.32 5 -1 5 C-1.33 6.32 -1.66 7.64 -2 9 C-2.66 9 -3.32 9 -4 9 C-2.94124926 5.59687262 -1.99097846 2.98646769 0 0 Z " fill="#E9C65D" transform="translate(60,67)"/>
<path d="M0 0 C10.55808656 -0.3690205 10.55808656 -0.3690205 15 2 C14.01 2.33 13.02 2.66 12 3 C11.67 3.66 11.34 4.32 11 5 C10.278125 4.67 9.55625 4.34 8.8125 4 C5.98302573 2.99396471 3.97104534 2.83022598 1 3 C0.67 2.01 0.34 1.02 0 0 Z " fill="#E6CA6F" transform="translate(56,28)"/>
<path d="M0 0 C0.33 1.32 0.66 2.64 1 4 C3.31 3.34 5.62 2.68 8 2 C8 1.34 8 0.68 8 0 C9.32 0 10.64 0 12 0 C11.625 1.9375 11.625 1.9375 11 4 C8.59454362 5.20272819 7.05003047 5.10071472 4.375 5.0625 C3.14910156 5.04896484 3.14910156 5.04896484 1.8984375 5.03515625 C0.95871094 5.01775391 0.95871094 5.01775391 0 5 C0 3.35 0 1.7 0 0 Z " fill="#E3C866" transform="translate(393,84)"/>
<path d="M0 0 C0 0.99 0 1.98 0 3 C-0.66 3 -1.32 3 -2 3 C-2 3.99 -2 4.98 -2 6 C-2.66 6 -3.32 6 -4 6 C-4.66 7.32 -5.32 8.64 -6 10 C-6.97140086 6.97786398 -7.19248372 4.9812093 -6 2 C-3 0 -3 0 0 0 Z " fill="#ECC64D" transform="translate(260,64)"/>
<path d="M0 0 C0.33 0.99 0.66 1.98 1 3 C2.65 3 4.3 3 6 3 C6 3.66 6 4.32 6 5 C3.29120665 6.35439668 0.99066732 6.06501451 -2 6 C-2.33 4.35 -2.66 2.7 -3 1 C-2.01 0.67 -1.02 0.34 0 0 Z " fill="#E6C34E" transform="translate(259,79)"/>
<path d="M0 0 C0.66 0 1.32 0 2 0 C2.33 1.65 2.66 3.3 3 5 C2.01 5 1.02 5 0 5 C0 5.99 0 6.98 0 8 C-0.66 8 -1.32 8 -2 8 C-2.33 8.99 -2.66 9.98 -3 11 C-3.93423645 7.98968256 -4.04449911 7.13349732 -3 4 C-2.34 4 -1.68 4 -1 4 C-0.67 2.68 -0.34 1.36 0 0 Z " fill="#F2C83D" transform="translate(59,72)"/>
<path d="M0 0 C1.21386936 3.64160808 0.6674695 4.33165469 -0.9375 7.6875 C-1.31777344 8.49574219 -1.69804687 9.30398437 -2.08984375 10.13671875 C-2.39019531 10.75160156 -2.69054687 11.36648437 -3 12 C-3.33 10.68 -3.66 9.36 -4 8 C-4.66 9.32 -5.32 10.64 -6 12 C-7 10 -7 10 -6.44140625 8.0546875 C-6.15136719 7.33539063 -5.86132812 6.61609375 -5.5625 5.875 C-5.27503906 5.15054688 -4.98757812 4.42609375 -4.69140625 3.6796875 C-4.46324219 3.12539062 -4.23507813 2.57109375 -4 2 C-3.01 2 -2.02 2 -1 2 C-0.67 1.34 -0.34 0.68 0 0 Z " fill="#E4C462" transform="translate(256,70)"/>
<path d="M0 0 C4.29 0 8.58 0 13 0 C13 0.66 13 1.32 13 2 C9.97562661 3.5121867 7.33758466 3.17263369 4 3 C1.5625 2 1.5625 2 0 1 C0 0.67 0 0.34 0 0 Z " fill="#E9CC6F" transform="translate(360,66)"/>
<path d="M0 0 C0.99 0.33 1.98 0.66 3 1 C3.8125 2.8125 3.8125 2.8125 4 5 C3.0625 7.25 3.0625 7.25 2 9 C1.34 9 0.68 9 0 9 C-1.125 2.25 -1.125 2.25 0 0 Z " fill="#EAC64F" transform="translate(276,17)"/>
<path d="M0 0 C1.32 0 2.64 0 4 0 C3.40072174 3.35595828 2.15377564 5.37801226 0 8 C-0.99 7.67 -1.98 7.34 -3 7 C-1.125 2.25 -1.125 2.25 0 0 Z " fill="#E3C563" transform="translate(283,5)"/>
<path d="M0 0 C0.33 1.32 0.66 2.64 1 4 C-0.09445838 4.86657116 -1.20097781 5.71792724 -2.3125 6.5625 C-2.92738281 7.03816406 -3.54226563 7.51382813 -4.17578125 8.00390625 C-4.77777344 8.33261719 -5.37976563 8.66132812 -6 9 C-6.99 8.67 -7.98 8.34 -9 8 C-8.67 7.01 -8.34 6.02 -8 5 C-4.9375 3.8125 -4.9375 3.8125 -2 3 C-2 2.34 -2 1.68 -2 1 C-1.34 0.67 -0.68 0.34 0 0 Z " fill="#E6C664" transform="translate(430,75)"/>
<path d="M0 0 C1.62463842 -0.05395478 3.24978541 -0.09277195 4.875 -0.125 C5.77992188 -0.14820312 6.68484375 -0.17140625 7.6171875 -0.1953125 C10 0 10 0 12 2 C9.78704384 3.10647808 8.45327301 3.19588368 6 3.25 C5.29875 3.27578125 4.5975 3.3015625 3.875 3.328125 C3.25625 3.21984375 2.6375 3.1115625 2 3 C1.34 2.01 0.68 1.02 0 0 Z " fill="#EACB6D" transform="translate(220,66)"/>
<path d="M0 0 C0.33 0.99 0.66 1.98 1 3 C1.66 3.33 2.32 3.66 3 4 C1.02 6.97 1.02 6.97 -1 10 C-1.33 9.01 -1.66 8.02 -2 7 C-2.66 7 -3.32 7 -4 7 C-2.79618552 4.50638429 -1.54571278 2.31856917 0 0 Z " fill="#E9C360" transform="translate(73,55)"/>
<path d="M0 0 C0.66 0.33 1.32 0.66 2 1 C2 1.66 2 2.32 2 3 C2.66 3.33 3.32 3.66 4 4 C2.6875 6 2.6875 6 1 8 C0.01 8 -0.98 8 -2 8 C-1.125 2.25 -1.125 2.25 0 0 Z " fill="#E2C763" transform="translate(45,93)"/>
<path d="M0 0 C0.33 1.32 0.66 2.64 1 4 C-0.98 4.99 -2.96 5.98 -5 7 C-5 6.34 -5 5.68 -5 5 C-5.99 4.67 -6.98 4.34 -8 4 C-2.25 0 -2.25 0 0 0 Z " fill="#E6C866" transform="translate(130,25)"/>
<path d="M0 0 C0 0.66 0 1.32 0 2 C-5.445 3.485 -5.445 3.485 -11 5 C-11.33 4.01 -11.66 3.02 -12 2 C-7.8803623 0.70756464 -4.33168317 -0.26252625 0 0 Z " fill="#D8C477" transform="translate(57,29)"/>
<path d="M0 0 C0.99 1.32 1.98 2.64 3 4 C1.68 5.65 0.36 7.3 -1 9 C-1 8.34 -1 7.68 -1 7 C-1.66 7 -2.32 7 -3 7 C-1.125 2.25 -1.125 2.25 0 0 Z " fill="#E6C861" transform="translate(259,88)"/>
<path d="M0 0 C0.66 0 1.32 0 2 0 C2 0.66 2 1.32 2 2 C2.99 1.67 3.98 1.34 5 1 C5 2.65 5 4.3 5 6 C3.02 6.99 3.02 6.99 1 8 C1.33 6.68 1.66 5.36 2 4 C1.34 3.67 0.68 3.34 0 3 C0 2.01 0 1.02 0 0 Z " fill="#F0C24B" transform="translate(268,75)"/>
<path d="M0 0 C0 2.31 0 4.62 0 7 C-1.65 6.67 -3.3 6.34 -5 6 C-5 5.01 -5 4.02 -5 3 C-1.55555556 0 -1.55555556 0 0 0 Z " fill="#F2C63F" transform="translate(79,52)"/>
<path d="M0 0 C1.5 1.1875 1.5 1.1875 3 3 C3.1875 5.6875 3.1875 5.6875 3 8 C2.67 7.34 2.34 6.68 2 6 C1.34 6 0.68 6 0 6 C-0.33 6.99 -0.66 7.98 -1 9 C-1.125 2.25 -1.125 2.25 0 0 Z " fill="#E4C965" transform="translate(156,88)"/>
<path d="M0 0 C0.33 0.66 0.66 1.32 1 2 C1.66 2 2.32 2 3 2 C3 4.64 3 7.28 3 10 C2.34 10 1.68 10 1 10 C0.67 6.7 0.34 3.4 0 0 Z " fill="#ECC545" transform="translate(70,35)"/>
<path d="M0 0 C0.66 0 1.32 0 2 0 C3.625 2 3.625 2 5 4 C2.69 4.33 0.38 4.66 -2 5 C-1.125 1.125 -1.125 1.125 0 0 Z " fill="#E7BF3C" transform="translate(166,76)"/>
<path d="M0 0 C0.99 0 1.98 0 3 0 C2.67 1.65 2.34 3.3 2 5 C0.68 5.33 -0.64 5.66 -2 6 C-1.34 4.02 -0.68 2.04 0 0 Z " fill="#D6B557" transform="translate(413,67)"/>
<path d="M0 0 C0.33 0 0.66 0 1 0 C0.67 2.31 0.34 4.62 0 7 C-0.99 7.33 -1.98 7.66 -3 8 C-3 3.75589918 -2.68429577 3.00641127 0 0 Z " fill="#EEC64C" transform="translate(124,64)"/>
<path d="M0 0 C0.99 0.33 1.98 0.66 3 1 C4.1875 3.5625 4.1875 3.5625 5 6 C4.01 6.33 3.02 6.66 2 7 C1.34 6.67 0.68 6.34 0 6 C0 4.02 0 2.04 0 0 Z " fill="#E6C768" transform="translate(386,93)"/>
<path d="M0 0 C0.99 0.33 1.98 0.66 3 1 C1.35 3.64 -0.3 6.28 -2 9 C-3 5 -3 5 -2 3 C-1.34 3 -0.68 3 0 3 C0 2.01 0 1.02 0 0 Z " fill="#E6C660" transform="translate(59,77)"/>
<path d="M0 0 C0.33 0.99 0.66 1.98 1 3 C1.99 3.33 2.98 3.66 4 4 C3.01 4.33 2.02 4.66 1 5 C0.67 5.99 0.34 6.98 0 8 C-0.33 8 -0.66 8 -1 8 C-1.04241723 5.66705225 -1.04092937 3.33297433 -1 1 C-0.67 0.67 -0.34 0.34 0 0 Z " fill="#EAC951" transform="translate(267,75)"/>
<path d="M0 0 C0.87840996 3.09720845 0.99435406 4.90645403 0 8 C1.32 8.33 2.64 8.66 4 9 C2.35 9.33 0.7 9.66 -1 10 C-2.27351308 7.45297384 -1.80191925 6.5717055 -1.0625 3.875 C-0.86785156 3.15054688 -0.67320313 2.42609375 -0.47265625 1.6796875 C-0.31667969 1.12539062 -0.16070312 0.57109375 0 0 Z " fill="#E3C965" transform="translate(71,72)"/>
<path d="M0 0 C0.99 1.32 1.98 2.64 3 4 C1.68 4.99 0.36 5.98 -1 7 C-1.33 6.34 -1.66 5.68 -2 5 C-2.66 4.67 -3.32 4.34 -4 4 C-2.68 2.68 -1.36 1.36 0 0 Z " fill="#E7CA66" transform="translate(99,47)"/>
<path d="M0 0 C0.66 0 1.32 0 2 0 C1.5205537 4.21912747 0.83374881 6.79663178 -2 10 C-1.85950482 8.52031676 -1.71245174 7.04125484 -1.5625 5.5625 C-1.48128906 4.73878906 -1.40007812 3.91507813 -1.31640625 3.06640625 C-1 1 -1 1 0 0 Z " fill="#E5C159" transform="translate(422,11)"/>
<path d="M0 0 C0.86625 0.556875 0.86625 0.556875 1.75 1.125 C-0.23 2.115 -2.21 3.105 -4.25 4.125 C-4.25 3.465 -4.25 2.805 -4.25 2.125 C-4.91 1.795 -5.57 1.465 -6.25 1.125 C-2.80384615 -1.09038462 -2.80384615 -1.09038462 0 0 Z " fill="#EACB71" transform="translate(350.25,102.875)"/>
<path d="M0 0 C1.32 0 2.64 0 4 0 C3.67 1.98 3.34 3.96 3 6 C2.34 5.67 1.68 5.34 1 5 C1 4.34 1 3.68 1 3 C0.34 2.67 -0.32 2.34 -1 2 C-0.67 1.34 -0.34 0.68 0 0 Z " fill="#E7C344" transform="translate(431,75)"/>
<path d="M0 0 C0.66 0 1.32 0 2 0 C2 1.65 2 3.3 2 5 C0.68 5.33 -0.64 5.66 -2 6 C-1.34 4.02 -0.68 2.04 0 0 Z " fill="#EEC84D" transform="translate(127,57)"/>
<path d="M0 0 C1.32 0 2.64 0 4 0 C3.67 1.65 3.34 3.3 3 5 C0 5 0 5 -2 4 C-1.34 2.68 -0.68 1.36 0 0 Z " fill="#E4CF74" transform="translate(174,53)"/>
<path d="M0 0 C0.33 0 0.66 0 1 0 C1 1.98 1 3.96 1 6 C-0.32 5.67 -1.64 5.34 -3 5 C-1.125 1.125 -1.125 1.125 0 0 Z " fill="#E8C357" transform="translate(241,70)"/>
<path d="M0 0 C0.99 0 1.98 0 3 0 C2.67 1.32 2.34 2.64 2 4 C1.34 4 0.68 4 0 4 C0 4.66 0 5.32 0 6 C-0.66 5.67 -1.32 5.34 -2 5 C-1.34 3.35 -0.68 1.7 0 0 Z " fill="#F0C652" transform="translate(9,55)"/>
</svg>
